# xmcd
#
# Track frame offsets:
#	150
#	12369
#	24013
#	34112
#	46515
#	59537
#	70399
#	81074
#	91603
#	102761
#	113291
#	124346
#	136881
#	147580
#	159758
#	170809
#	181039
#	192283
#	203786
#	215043
#	226097
#	236420
#	247419
#	257341
#	267620
#	279407
#
# Disc length: 3867 seconds
#
# Revision: 2
# Processed by: cddbd v1.5.1PL2 Copyright (c) Steve Scherf et al.
# Submitted via: EasyCDDAExtractor 9.1.3.1
#
DISCID=5f0f191a
DTITLE=Smiley Lewis (Feat. Dave Bartholomew and Tuts Washington) - New Orleans G
DTITLE=uitar (1947-53) - Disc A (Smiley Lewis)
DYEAR=2006
DGENRE=Blues
TTITLE0=Turn On Your Volume, Baby
TTITLE1=Here Comes Smiley
TTITLE2=Tee-Nah-Nah
TTITLE3=Lowdown
TTITLE4=Slide Me Down
TTITLE5=Growing Old
TTITLE6=If You Ever Loved A Woman
TTITLE7=Dirty People
TTITLE8=Where Were You
TTITLE9=My Baby
TTITLE10=Sad Life
TTITLE11=Bee's Boogie
TTITLE12=Don't Jive Me
TTITLE13=My Baby Was Right
TTITLE14=The Bells Are Ringing
TTITLE15=Lillie Mae
TTITLE16=You're Gonna Miss Me
TTITLE17=Gypsy Blues
TTITLE18=You're Not The One
TTITLE19=Gumbo Blues
TTITLE20=Ain't Gonna Do It
TTITLE21=It's So Peaceful
TTITLE22=Caldonia's Party
TTITLE23=Lonesome Highway
TTITLE24=Standing On The Corner
TTITLE25=Oh Baby
EXTD=YEAR: 1993
EXTT0=
EXTT1=
EXTT2=
EXTT3=
EXTT4=
EXTT5=
EXTT6=
EXTT7=
EXTT8=
EXTT9=
EXTT10=
EXTT11=
EXTT12=
EXTT13=
EXTT14=
EXTT15=
EXTT16=
EXTT17=
EXTT18=
EXTT19=
EXTT20=
EXTT21=
EXTT22=
EXTT23=
EXTT24=
EXTT25=
PLAYORDER=
